<svg id="svg" version="1.1" xmlns="http://www.w3.org/2000/svg" xmlns:xlink="http://www.w3.org/1999/xlink" width="400" height="400" viewBox="0, 0, 400,400"><g id="svgg"><path id="path0" d="M170.900 29.596 C 170.185 30.032,169.600 30.571,169.600 30.794 C 169.600 31.024,168.428 31.221,166.900 31.247 C 163.005 31.316,161.824 31.638,161.676 32.673 C 161.568 33.427,161.212 33.578,158.976 33.817 C 157.559 33.969,156.400 34.252,156.400 34.447 C 156.400 35.316,154.724 36.400,153.379 36.400 C 152.160 36.400,151.899 36.570,151.540 37.600 C 151.229 38.492,150.871 38.800,150.144 38.800 C 149.157 38.800,148.685 39.088,147.081 40.668 C 146.597 41.146,145.750 41.596,145.200 41.668 C 144.454 41.767,144.168 42.073,144.076 42.876 C 143.980 43.702,143.706 43.980,142.892 44.076 C 142.141 44.164,141.764 44.492,141.599 45.200 C 141.449 45.847,141.043 46.247,140.450 46.332 C 139.846 46.419,139.336 46.933,138.961 47.832 C 138.646 48.585,138.128 49.200,137.809 49.200 C 137.003 49.200,136.400 50.477,136.400 52.184 C 136.400 53.448,136.261 53.648,135.242 53.852 C 134.396 54.021,134.025 54.369,133.869 55.142 C 133.749 55.734,133.246 56.376,132.727 56.600 C 132.013 56.908,131.703 57.504,131.379 59.199 C 131.058 60.870,130.771 61.433,130.179 61.545 C 129.081 61.753,128.813 62.328,128.806 64.492 C 128.801 66.155,128.683 66.414,127.838 66.626 C 126.674 66.918,126.413 67.772,126.405 71.300 C 126.401 73.673,126.309 74.000,125.649 74.000 C 124.348 74.000,124.050 74.902,123.763 79.715 C 123.555 83.184,123.346 84.400,122.955 84.400 C 121.540 84.400,121.403 85.871,121.276 102.412 C 121.142 119.928,121.307 122.377,122.660 122.975 C 123.399 123.302,123.545 123.812,123.788 126.923 C 124.059 130.386,124.103 130.508,125.216 130.929 C 126.266 131.325,126.375 131.553,126.482 133.565 C 126.588 135.542,126.702 135.791,127.600 136.000 C 128.476 136.203,128.616 136.476,128.726 138.206 C 128.865 140.398,129.327 141.200,130.449 141.200 C 130.978 141.200,131.200 141.488,131.200 142.174 C 131.200 143.776,131.921 145.181,132.992 145.669 C 133.715 145.999,134.000 146.441,134.000 147.232 C 134.000 148.129,134.221 148.385,135.176 148.595 C 136.073 148.792,136.381 149.108,136.476 149.927 C 136.572 150.755,136.845 151.028,137.676 151.124 C 138.507 151.220,138.780 151.493,138.876 152.324 C 138.972 153.156,139.244 153.428,140.076 153.524 C 140.907 153.620,141.180 153.893,141.276 154.724 C 141.370 155.543,141.707 155.890,142.681 156.177 C 143.633 156.458,143.992 156.817,144.081 157.577 C 144.171 158.352,144.460 158.630,145.276 158.724 C 146.107 158.820,146.380 159.093,146.476 159.924 C 146.570 160.739,146.848 161.029,147.619 161.119 C 148.326 161.201,148.776 161.600,149.085 162.419 C 149.416 163.297,149.789 163.600,150.538 163.600 C 151.198 163.600,151.635 163.879,151.802 164.407 C 152.063 165.228,154.309 166.400,155.621 166.400 C 156.067 166.400,156.393 166.746,156.472 167.300 C 156.560 167.920,157.005 168.319,157.899 168.583 C 158.614 168.793,159.296 169.273,159.416 169.649 C 159.651 170.391,161.552 171.200,163.060 171.200 C 163.699 171.200,164.000 171.431,164.000 171.920 C 164.000 173.097,164.847 173.600,166.830 173.600 C 168.573 173.600,168.716 173.679,168.932 174.759 C 169.148 175.842,169.321 175.935,171.582 176.198 C 173.605 176.433,174.000 176.604,174.000 177.249 C 174.000 178.151,175.431 178.800,177.418 178.800 C 178.528 178.800,178.830 178.981,179.026 179.762 C 179.289 180.810,180.195 181.186,182.473 181.195 C 183.606 181.199,184.006 181.390,184.207 182.023 C 184.533 183.050,185.930 183.600,188.214 183.600 C 189.704 183.600,190.112 183.783,190.854 184.788 C 191.595 185.790,192.097 186.016,194.066 186.239 C 195.524 186.404,196.400 186.691,196.400 187.003 C 196.400 187.863,197.443 188.419,199.517 188.665 C 201.068 188.848,201.609 189.102,201.924 189.794 C 202.348 190.723,203.812 191.200,206.238 191.200 C 207.261 191.200,207.785 191.483,208.463 192.400 C 209.270 193.491,209.559 193.600,211.649 193.600 C 213.858 193.600,213.952 193.642,214.073 194.700 C 214.189 195.705,214.396 195.831,216.472 196.160 C 218.334 196.456,218.784 196.682,218.967 197.413 C 219.214 198.394,220.217 198.786,222.500 198.795 C 223.814 198.799,224.000 198.919,224.000 199.757 C 224.000 200.888,224.650 201.200,227.006 201.200 C 228.608 201.200,228.757 201.288,228.873 202.300 C 228.988 203.300,229.166 203.411,230.825 203.519 C 232.367 203.619,232.759 203.823,233.357 204.835 C 233.783 205.556,234.512 206.122,235.187 206.257 C 235.837 206.387,236.490 206.878,236.739 207.425 C 237.077 208.168,237.597 208.425,239.184 208.636 C 240.694 208.836,241.200 209.071,241.200 209.572 C 241.200 210.510,241.997 211.200,243.080 211.200 C 243.611 211.200,244.000 211.442,244.000 211.771 C 244.000 212.695,245.171 213.600,246.367 213.600 C 247.459 213.600,248.800 214.647,248.800 215.500 C 248.800 215.740,249.323 216.051,249.963 216.192 C 250.755 216.366,251.204 216.762,251.373 217.436 C 251.546 218.125,251.981 218.496,252.811 218.662 C 253.733 218.847,254.000 219.115,254.000 219.860 C 254.000 220.607,254.267 220.873,255.200 221.060 C 255.960 221.212,256.400 221.546,256.400 221.970 C 256.400 222.814,257.167 223.600,257.992 223.600 C 258.340 223.600,258.828 224.140,259.078 224.800 C 259.374 225.584,259.809 226.000,260.333 226.000 C 260.896 226.000,261.213 226.351,261.394 227.174 C 261.586 228.049,261.945 228.412,262.802 228.600 C 263.673 228.792,263.982 229.114,264.076 229.927 C 264.173 230.762,264.444 231.028,265.300 231.127 C 266.155 231.225,266.400 231.464,266.400 232.201 C 266.400 233.716,267.146 235.261,267.983 235.480 C 268.498 235.614,268.796 236.096,268.878 236.928 C 268.976 237.930,269.240 238.243,270.220 238.522 C 270.891 238.714,271.611 239.259,271.820 239.735 C 272.630 241.580,278.054 241.583,278.321 239.738 C 278.400 239.191,278.882 238.778,279.721 238.538 L 281.000 238.172 281.114 234.768 C 281.227 231.403,281.242 231.359,282.414 230.917 L 283.600 230.469 283.600 222.678 C 283.600 216.120,283.695 214.849,284.200 214.655 C 284.701 214.463,284.800 213.305,284.800 207.662 C 284.800 202.137,284.690 200.807,284.200 200.400 C 283.712 199.995,283.600 198.689,283.600 193.377 C 283.600 186.537,283.299 184.856,282.012 184.519 C 281.357 184.348,281.216 183.899,281.117 181.658 C 281.004 179.089,280.963 178.996,279.900 178.873 C 278.857 178.753,278.800 178.639,278.804 176.673 C 278.807 174.842,278.664 174.482,277.577 173.589 C 276.670 172.843,276.288 172.129,276.118 170.868 C 275.919 169.381,275.740 169.128,274.745 168.929 C 273.821 168.744,273.600 168.490,273.600 167.608 C 273.600 166.965,273.148 166.041,272.500 165.358 C 271.895 164.721,271.205 163.660,270.966 163.000 C 270.703 162.271,270.203 161.751,269.693 161.676 C 269.132 161.593,268.766 161.155,268.591 160.359 C 268.393 159.458,268.049 159.110,267.187 158.937 C 266.323 158.765,266.015 158.452,265.922 157.654 C 265.828 156.846,265.549 156.571,264.724 156.476 C 263.893 156.380,263.620 156.107,263.524 155.276 C 263.429 154.451,263.154 154.172,262.346 154.078 C 261.540 153.984,261.236 153.678,261.056 152.778 C 260.871 151.855,260.606 151.600,259.832 151.600 C 259.151 151.600,258.681 151.262,258.322 150.513 C 257.982 149.805,257.296 149.281,256.356 149.013 C 254.672 148.531,253.600 147.730,253.600 146.951 C 253.600 146.608,253.157 146.400,252.427 146.400 C 251.444 146.400,251.233 146.221,251.127 145.300 C 251.027 144.434,250.765 144.173,249.891 144.073 C 249.281 144.003,248.514 143.535,248.186 143.034 C 247.489 141.971,245.973 141.200,244.581 141.200 C 243.903 141.200,243.600 140.978,243.600 140.480 C 243.600 139.399,242.792 138.800,241.332 138.800 C 240.342 138.800,239.808 138.508,239.137 137.600 C 238.526 136.774,237.908 136.400,237.152 136.400 C 236.405 136.400,235.973 136.144,235.800 135.600 C 235.496 134.641,234.715 134.198,232.682 133.831 C 231.609 133.637,231.061 133.286,230.813 132.635 C 230.466 131.720,229.064 131.200,226.950 131.200 C 226.272 131.200,226.000 130.975,226.000 130.414 C 226.000 129.391,224.847 128.800,222.853 128.800 C 221.545 128.800,221.203 128.636,220.973 127.900 C 220.584 126.654,220.089 126.413,217.900 126.406 C 216.523 126.402,216.000 126.243,216.000 125.829 C 216.000 124.808,214.895 124.116,212.826 123.841 C 211.400 123.652,210.800 123.393,210.800 122.966 C 210.800 122.229,208.478 121.200,206.813 121.200 C 206.011 121.200,205.600 121.000,205.600 120.610 C 205.600 119.839,203.561 118.800,202.047 118.800 C 201.238 118.800,200.778 118.562,200.619 118.061 C 200.336 117.169,198.774 116.400,197.245 116.400 C 196.445 116.400,196.001 116.119,195.678 115.411 C 195.430 114.867,194.816 114.338,194.314 114.236 C 193.811 114.134,192.936 113.953,192.369 113.835 C 191.799 113.716,191.138 113.182,190.893 112.644 C 190.540 111.871,190.012 111.599,188.342 111.333 C 186.552 111.049,186.201 110.848,186.002 109.999 C 185.835 109.285,185.459 108.964,184.685 108.874 C 183.930 108.785,183.529 108.456,183.360 107.784 C 183.178 107.060,182.757 106.756,181.659 106.560 C 180.099 106.281,178.800 105.385,178.800 104.588 C 178.800 104.320,178.305 104.001,177.699 103.880 C 176.938 103.728,176.454 103.280,176.134 102.430 C 175.780 101.493,175.423 101.200,174.635 101.200 C 173.758 101.200,173.600 101.022,173.600 100.031 C 173.600 99.265,173.186 98.448,172.400 97.662 C 171.704 96.966,171.200 96.040,171.200 95.458 C 171.200 94.800,170.787 94.161,170.000 93.600 L 168.800 92.746 168.800 86.973 C 168.800 81.680,168.860 81.200,169.520 81.200 C 170.506 81.200,171.200 80.423,171.200 79.320 C 171.200 78.671,171.432 78.400,171.990 78.400 C 172.463 78.400,173.028 77.919,173.400 77.200 C 173.829 76.371,174.318 76.000,174.984 76.000 C 175.737 76.000,175.974 75.760,176.073 74.900 L 176.200 73.800 180.400 73.563 C 189.713 73.036,201.479 73.615,201.938 74.623 C 202.370 75.573,205.089 76.400,207.777 76.400 C 208.614 76.400,209.203 76.631,209.352 77.018 C 209.669 77.845,212.040 78.800,213.775 78.800 C 214.868 78.800,215.371 79.064,216.063 80.000 C 216.777 80.965,217.246 81.200,218.463 81.200 C 219.680 81.200,220.149 81.435,220.863 82.400 C 221.514 83.281,222.078 83.600,222.980 83.600 C 223.866 83.600,224.321 83.849,224.605 84.489 C 224.854 85.050,225.696 85.604,226.885 85.989 C 228.205 86.417,228.804 86.840,228.885 87.400 C 228.958 87.907,229.469 88.338,230.282 88.578 C 231.090 88.816,231.608 89.250,231.682 89.751 C 231.756 90.247,232.248 90.665,232.990 90.863 C 233.645 91.037,234.455 91.529,234.790 91.957 C 235.126 92.384,236.030 93.075,236.800 93.493 C 237.570 93.910,238.380 94.657,238.600 95.153 C 238.820 95.649,239.485 96.153,240.078 96.273 C 240.875 96.434,241.188 96.766,241.278 97.546 C 241.371 98.354,241.651 98.629,242.473 98.724 C 243.285 98.818,243.608 99.128,243.798 99.992 C 243.937 100.622,244.532 101.646,245.123 102.268 C 245.713 102.891,246.376 103.940,246.598 104.600 C 246.860 105.382,247.314 105.845,247.900 105.928 C 248.561 106.022,248.800 106.323,248.800 107.063 C 248.800 107.814,249.104 108.184,250.000 108.522 C 250.816 108.831,251.200 109.248,251.200 109.828 C 251.200 111.242,252.041 113.200,252.648 113.200 C 253.197 113.200,253.367 113.498,254.407 116.287 C 254.670 116.994,255.212 117.677,255.610 117.803 C 256.008 117.929,256.519 118.566,256.747 119.219 C 257.326 120.881,258.521 121.201,264.126 121.195 C 270.109 121.188,270.681 121.052,271.009 119.559 C 271.200 118.688,271.493 118.400,272.189 118.400 C 273.532 118.400,273.600 117.949,273.600 108.994 C 273.600 101.130,273.628 100.845,274.423 100.593 C 275.816 100.151,276.017 98.648,276.110 88.010 C 276.205 77.136,276.094 76.400,274.351 76.400 C 273.699 76.400,273.600 76.081,273.600 73.990 C 273.600 71.632,273.574 71.575,272.400 71.340 C 271.376 71.135,271.199 70.917,271.195 69.850 C 271.186 67.806,270.760 66.805,269.796 66.563 C 269.194 66.412,268.808 65.940,268.654 65.168 C 268.474 64.270,268.200 64.000,267.468 64.000 C 266.736 64.000,266.430 63.699,266.145 62.700 C 265.862 61.708,265.522 61.371,264.712 61.276 C 263.894 61.180,263.620 60.903,263.524 60.076 C 263.428 59.244,263.156 58.972,262.324 58.876 C 261.493 58.780,261.220 58.507,261.124 57.676 C 261.029 56.851,260.754 56.572,259.946 56.478 C 259.147 56.385,258.835 56.077,258.661 55.206 C 258.483 54.315,258.180 54.027,257.316 53.928 C 256.443 53.828,256.173 53.566,256.076 52.727 C 255.982 51.917,255.672 51.592,254.813 51.403 C 254.051 51.236,253.594 50.831,253.431 50.180 C 253.238 49.414,252.842 49.152,251.564 48.948 C 250.424 48.766,249.690 48.348,249.095 47.544 C 248.522 46.769,247.896 46.400,247.151 46.400 C 246.255 46.400,246.030 46.201,245.927 45.314 C 245.825 44.440,245.537 44.175,244.448 43.954 C 242.674 43.594,241.200 42.787,241.200 42.175 C 241.200 41.636,240.321 41.200,239.231 41.200 C 238.845 41.200,238.327 40.757,238.080 40.216 C 237.721 39.427,237.232 39.179,235.616 38.964 C 234.507 38.817,233.600 38.540,233.600 38.348 C 233.600 37.318,231.916 36.400,230.027 36.400 C 228.443 36.400,228.007 36.251,227.814 35.643 C 227.519 34.714,226.090 34.135,223.202 33.773 C 221.754 33.592,220.829 33.248,220.490 32.765 C 219.718 31.663,217.462 31.205,212.795 31.202 C 208.839 31.200,208.566 31.147,208.195 30.313 C 207.582 28.937,206.872 28.882,189.000 28.841 C 172.920 28.805,172.144 28.837,170.900 29.596 M121.400 160.078 C 120.960 160.327,120.510 160.650,120.400 160.795 C 120.290 160.940,119.885 161.175,119.500 161.317 C 119.044 161.485,118.800 161.998,118.800 162.787 C 118.800 163.572,118.598 164.000,118.229 164.000 C 116.412 164.000,116.400 164.135,116.400 184.025 L 116.400 202.794 117.600 203.863 C 118.776 204.911,118.800 205.008,118.800 208.786 C 118.800 212.761,119.093 213.600,120.480 213.600 C 121.084 213.600,121.208 213.969,121.247 215.900 C 121.319 219.400,121.668 220.580,122.671 220.724 C 123.408 220.829,123.586 221.215,123.868 223.324 C 124.177 225.632,124.275 225.809,125.300 225.927 C 126.215 226.032,126.400 226.246,126.400 227.201 C 126.400 228.899,127.106 230.450,127.983 230.680 C 128.501 230.815,128.796 231.296,128.878 232.141 C 128.979 233.180,129.192 233.422,130.100 233.527 C 131.004 233.631,131.200 233.850,131.200 234.760 C 131.200 235.478,131.672 236.347,132.544 237.233 C 133.283 237.985,134.001 239.075,134.140 239.656 C 134.304 240.339,134.748 240.801,135.397 240.963 C 135.998 241.114,136.400 241.501,136.400 241.928 C 136.400 242.824,137.156 243.600,138.030 243.600 C 138.454 243.600,138.788 244.040,138.940 244.800 C 139.128 245.741,139.391 246.000,140.158 246.000 C 140.915 246.000,141.195 246.266,141.394 247.174 C 141.588 248.056,141.944 248.412,142.826 248.606 C 143.649 248.787,144.000 249.104,144.000 249.667 C 144.000 250.187,144.412 250.625,145.171 250.911 C 145.815 251.154,146.528 251.764,146.757 252.266 C 146.988 252.773,147.667 253.282,148.286 253.413 C 149.830 253.738,150.477 254.127,150.973 255.027 C 151.552 256.075,152.036 256.387,153.100 256.394 C 153.794 256.399,154.000 256.631,154.000 257.410 C 154.000 258.218,154.246 258.469,155.231 258.666 C 156.015 258.823,156.591 259.250,156.815 259.840 C 157.096 260.577,157.574 260.822,159.143 261.030 C 160.917 261.266,161.142 261.410,161.349 262.446 C 161.547 263.437,161.766 263.600,162.895 263.600 C 163.869 263.600,164.313 263.831,164.605 264.489 C 164.854 265.049,165.696 265.604,166.881 265.989 C 168.204 266.419,168.828 266.861,168.984 267.480 C 169.170 268.222,169.581 268.403,171.581 268.630 C 173.767 268.877,173.966 268.982,174.078 269.949 C 174.186 270.877,174.400 271.014,175.905 271.123 C 177.251 271.221,177.794 271.494,178.480 272.423 C 179.195 273.389,179.642 273.600,180.975 273.601 C 182.328 273.602,182.732 273.800,183.390 274.781 C 183.959 275.630,184.626 276.035,185.774 276.229 C 187.598 276.538,188.800 277.183,188.800 277.853 C 188.800 278.462,189.747 278.800,191.451 278.800 C 192.572 278.800,192.968 279.029,193.519 279.997 C 194.022 280.883,194.495 281.196,195.331 281.197 C 196.052 281.199,196.897 281.635,197.662 282.400 C 198.504 283.243,199.250 283.600,200.167 283.600 C 201.154 283.600,201.577 283.832,201.907 284.556 C 202.219 285.240,202.909 285.656,204.338 286.023 C 205.733 286.380,206.458 286.810,206.751 287.451 C 207.072 288.158,207.615 288.427,209.112 288.626 C 210.784 288.848,211.118 289.046,211.493 290.042 C 211.816 290.897,212.194 291.200,212.938 291.200 C 213.604 291.200,214.035 291.479,214.207 292.023 C 214.504 292.957,215.897 293.600,217.626 293.600 C 218.657 293.600,218.800 293.743,218.800 294.768 C 218.800 295.736,219.002 295.981,219.976 296.195 C 220.752 296.365,221.194 296.736,221.276 297.286 C 221.398 298.104,221.913 298.530,223.300 298.959 C 223.725 299.090,224.000 299.572,224.000 300.187 C 224.000 301.046,224.183 301.200,225.200 301.200 C 226.337 301.200,226.400 301.286,226.400 302.826 C 226.400 304.808,226.984 306.000,227.955 306.000 C 228.628 306.000,229.072 308.650,229.262 313.800 C 229.406 317.703,228.621 321.176,227.542 321.413 C 226.604 321.619,226.400 321.872,226.400 322.832 C 226.400 323.863,226.259 324.000,225.200 324.000 C 224.133 324.000,224.000 324.133,224.000 325.200 C 224.000 326.364,223.943 326.400,222.100 326.406 C 219.911 326.413,219.416 326.654,219.027 327.900 L 218.746 328.800 208.688 328.800 L 198.630 328.800 197.753 327.700 C 196.922 326.657,196.661 326.590,192.755 326.400 C 188.758 326.206,188.626 326.170,188.399 325.200 C 188.189 324.307,187.889 324.166,185.587 323.880 C 184.028 323.687,182.881 323.331,182.685 322.980 C 182.181 322.080,180.185 321.200,178.647 321.200 C 177.556 321.200,177.069 320.940,176.400 320.000 C 175.839 319.213,175.200 318.800,174.542 318.800 C 173.965 318.800,173.039 318.301,172.363 317.625 C 171.664 316.926,170.670 316.399,169.910 316.325 C 168.930 316.229,168.578 315.969,168.401 315.213 C 168.232 314.490,167.813 314.154,166.833 313.953 C 164.946 313.567,163.700 312.825,163.471 311.950 C 163.343 311.460,162.916 311.200,162.237 311.200 C 161.489 311.200,161.200 310.991,161.200 310.449 C 161.200 309.583,160.538 308.949,159.418 308.741 C 158.977 308.659,158.533 308.159,158.402 307.598 C 158.235 306.885,157.859 306.564,157.084 306.473 C 156.371 306.390,156.000 306.110,156.000 305.653 C 156.000 304.752,155.231 304.000,154.310 304.000 C 153.892 304.000,153.411 303.556,153.185 302.961 C 152.968 302.390,152.444 301.832,152.020 301.721 C 151.597 301.610,151.077 301.022,150.865 300.413 C 150.624 299.723,150.088 299.208,149.439 299.046 C 148.684 298.856,148.400 298.524,148.400 297.832 C 148.400 297.132,148.081 296.767,147.200 296.460 C 146.289 296.143,146.000 295.795,146.000 295.021 C 146.000 294.153,145.820 294.000,144.800 294.000 C 143.751 294.000,143.600 293.858,143.600 292.875 C 143.600 292.089,143.238 291.483,142.400 290.863 C 141.615 290.283,141.200 289.625,141.200 288.962 C 141.200 287.512,140.499 286.400,139.586 286.400 C 139.028 286.400,138.800 286.128,138.800 285.460 C 138.800 283.892,137.979 282.047,137.167 281.789 C 136.745 281.656,136.399 281.243,136.398 280.873 C 136.392 279.148,135.510 277.146,134.605 276.802 C 133.977 276.563,133.614 276.063,133.529 275.321 C 133.408 274.268,133.241 274.176,130.766 273.800 C 129.166 273.557,127.844 273.109,127.397 272.659 C 126.536 271.793,124.340 271.968,123.206 272.994 C 122.825 273.340,121.722 273.757,120.756 273.920 C 119.230 274.179,118.983 274.361,118.873 275.309 C 118.790 276.029,118.511 276.400,118.053 276.400 C 116.441 276.400,116.400 276.798,116.400 292.431 C 116.400 305.340,116.314 307.573,115.800 308.000 C 114.957 308.700,114.946 314.218,115.788 314.689 C 116.250 314.948,116.399 316.166,116.488 320.392 C 116.600 325.756,116.602 325.765,117.600 325.999 C 118.476 326.203,118.616 326.476,118.726 328.206 C 118.865 330.398,119.327 331.200,120.449 331.200 C 120.938 331.200,121.200 331.484,121.200 332.014 C 121.200 332.964,122.279 334.773,123.293 335.523 C 123.682 335.810,124.000 336.359,124.000 336.743 C 124.000 337.644,124.767 338.400,125.680 338.400 C 126.188 338.400,126.400 338.705,126.400 339.435 C 126.400 340.204,126.691 340.579,127.536 340.898 C 128.195 341.147,128.853 341.805,129.102 342.464 C 129.417 343.298,129.798 343.600,130.539 343.600 C 131.341 343.600,131.573 343.824,131.673 344.700 C 131.769 345.534,132.042 345.828,132.803 345.917 C 133.409 345.988,134.064 346.485,134.460 347.176 C 134.870 347.890,135.587 348.421,136.372 348.594 C 137.074 348.748,138.007 349.383,138.489 350.035 C 138.984 350.704,139.723 351.200,140.225 351.200 C 140.877 351.200,141.161 351.506,141.340 352.400 C 141.541 353.404,141.770 353.600,142.747 353.600 C 143.652 353.600,143.969 353.820,144.160 354.582 C 144.399 355.535,146.245 356.392,148.072 356.398 C 148.464 356.399,148.798 356.776,148.872 357.300 C 148.958 357.902,149.417 358.335,150.261 358.608 C 150.955 358.832,151.857 359.428,152.265 359.933 C 152.745 360.525,153.612 360.931,154.710 361.079 C 156.048 361.258,156.460 361.501,156.640 362.216 C 156.891 363.215,157.821 363.586,160.100 363.595 C 161.323 363.599,161.600 363.745,161.600 364.386 C 161.600 365.416,162.621 365.925,165.325 366.243 C 166.971 366.436,167.854 366.795,168.792 367.651 C 169.984 368.741,170.238 368.800,173.703 368.800 C 177.143 368.800,177.423 368.864,178.504 369.900 L 179.652 371.000 196.926 371.123 C 216.339 371.262,217.439 371.192,218.085 369.772 C 218.502 368.858,218.735 368.797,221.964 368.753 C 226.468 368.691,227.711 368.401,228.195 367.299 C 228.496 366.613,228.923 366.399,229.995 366.398 C 232.209 366.394,234.295 365.659,235.139 364.586 C 235.603 363.997,236.327 363.600,236.939 363.600 C 238.369 363.600,239.942 362.813,240.212 361.962 C 240.366 361.478,240.920 361.206,241.920 361.123 C 243.174 361.019,243.418 360.843,243.520 359.970 C 243.625 359.067,243.898 358.894,245.720 358.570 C 247.415 358.268,247.896 357.997,248.322 357.100 C 248.683 356.338,249.147 356.000,249.832 356.000 C 250.606 356.000,250.871 355.745,251.056 354.822 C 251.236 353.922,251.540 353.616,252.346 353.522 C 253.161 353.428,253.429 353.151,253.527 352.300 C 253.627 351.424,253.859 351.200,254.661 351.200 C 255.414 351.200,255.784 350.896,256.122 350.000 C 256.372 349.340,256.860 348.800,257.208 348.800 C 258.112 348.800,258.800 347.988,258.800 346.920 C 258.800 346.203,259.023 346.000,259.810 346.000 C 260.612 346.000,260.869 345.753,261.060 344.800 C 261.192 344.140,261.457 343.600,261.650 343.600 C 262.560 343.600,263.600 341.920,263.600 340.450 C 263.600 339.054,263.717 338.877,264.779 338.664 C 265.746 338.471,266.006 338.173,266.225 337.009 C 266.371 336.228,266.700 335.456,266.955 335.294 C 267.771 334.777,268.800 332.860,268.800 331.856 C 268.800 331.322,269.340 330.307,270.000 329.600 C 271.052 328.473,271.200 328.025,271.200 325.958 C 271.200 324.181,271.341 323.600,271.771 323.600 C 273.159 323.600,273.600 322.431,273.600 318.749 C 273.600 315.206,273.618 315.138,274.898 313.970 L 276.195 312.785 276.343 303.895 C 276.455 297.158,276.626 294.813,277.046 294.213 C 277.758 293.197,277.758 291.429,277.046 290.838 C 276.619 290.484,276.450 288.521,276.309 282.289 C 276.119 273.894,275.823 272.252,274.423 271.807 C 273.706 271.580,273.600 271.218,273.600 269.004 C 273.600 266.712,273.482 266.343,272.400 265.262 C 271.726 264.587,271.200 263.636,271.200 263.090 C 271.200 261.495,270.385 259.649,269.567 259.389 C 269.145 259.256,268.800 258.813,268.800 258.406 C 268.800 257.074,268.330 256.400,267.403 256.400 C 266.621 256.400,266.450 256.128,266.208 254.500 C 265.884 252.326,265.419 251.600,264.351 251.600 C 263.782 251.600,263.600 251.307,263.600 250.390 C 263.600 249.371,263.414 249.143,262.422 248.944 C 261.522 248.764,261.216 248.460,261.122 247.654 C 261.029 246.852,260.748 246.571,259.946 246.478 C 259.140 246.384,258.836 246.078,258.656 245.178 C 258.472 244.259,258.205 244.000,257.442 244.000 C 256.677 244.000,256.405 243.734,256.196 242.783 C 255.991 241.850,255.657 241.511,254.764 241.333 C 253.867 241.153,253.600 240.880,253.600 240.140 C 253.600 239.395,253.333 239.127,252.412 238.942 C 251.676 238.795,251.122 238.380,250.958 237.852 C 250.612 236.744,250.071 236.414,248.586 236.406 C 247.677 236.402,247.202 236.111,246.694 235.252 C 246.281 234.552,245.555 234.011,244.838 233.868 C 244.004 233.701,243.622 233.364,243.530 232.716 C 243.426 231.988,243.033 231.724,241.600 231.425 C 239.703 231.028,239.124 230.645,238.690 229.500 C 238.516 229.040,237.998 228.800,237.182 228.800 C 236.334 228.800,235.557 228.419,234.738 227.600 C 233.896 226.757,233.150 226.400,232.233 226.400 C 231.242 226.400,230.823 226.168,230.488 225.433 C 230.148 224.687,229.542 224.362,227.828 224.006 C 226.608 223.752,225.472 223.328,225.305 223.063 C 224.690 222.089,222.788 221.200,221.314 221.196 C 220.112 221.193,219.605 220.946,218.855 219.996 C 218.015 218.933,217.671 218.800,215.755 218.800 C 214.570 218.800,213.600 218.620,213.600 218.400 C 213.600 217.243,211.956 216.400,209.700 216.399 C 207.591 216.398,207.334 216.298,206.600 215.200 C 206.070 214.407,205.462 214.000,204.800 213.997 C 202.285 213.983,200.844 213.507,200.721 212.651 C 200.620 211.938,200.192 211.735,198.085 211.400 C 196.702 211.180,195.424 210.763,195.245 210.474 C 194.657 209.521,192.740 208.800,190.793 208.800 C 189.025 208.800,188.846 208.708,188.460 207.600 C 188.064 206.465,187.923 206.400,185.871 206.400 C 183.802 206.400,183.689 206.346,183.471 205.254 C 183.257 204.185,183.080 204.090,180.821 203.834 C 178.810 203.607,178.400 203.432,178.400 202.804 C 178.400 201.814,178.018 201.612,175.610 201.327 C 174.018 201.138,173.600 200.937,173.600 200.358 C 173.600 199.389,172.413 198.800,170.458 198.800 C 169.012 198.800,168.839 198.689,168.600 197.600 C 168.362 196.516,168.185 196.400,166.768 196.400 C 165.264 196.400,163.600 195.363,163.600 194.427 C 163.600 194.221,163.106 193.996,162.503 193.927 C 161.774 193.843,161.232 193.435,160.887 192.712 C 160.460 191.816,160.020 191.577,158.406 191.363 C 156.707 191.138,156.391 190.949,156.043 189.951 C 155.742 189.089,155.386 188.800,154.621 188.800 C 153.904 188.800,153.600 188.585,153.600 188.080 C 153.600 187.041,152.806 186.400,151.520 186.400 C 150.832 186.400,150.400 186.186,150.400 185.846 C 150.400 185.187,149.017 184.229,147.540 183.866 C 146.840 183.694,146.337 183.196,146.061 182.402 C 145.746 181.501,145.393 181.200,144.647 181.200 C 143.860 181.200,143.627 180.971,143.527 180.100 C 143.429 179.249,143.161 178.972,142.346 178.878 C 141.540 178.784,141.236 178.478,141.056 177.578 C 140.872 176.659,140.605 176.400,139.842 176.400 C 139.080 176.400,138.805 176.134,138.600 175.200 C 138.395 174.266,138.120 174.000,137.358 174.000 C 136.588 174.000,136.328 173.741,136.136 172.779 C 135.949 171.847,135.626 171.505,134.768 171.334 C 133.924 171.165,133.614 170.847,133.522 170.054 C 133.429 169.253,133.148 168.971,132.349 168.878 C 131.413 168.770,131.268 168.537,131.033 166.762 C 130.821 165.168,130.571 164.678,129.784 164.320 C 129.243 164.073,128.800 163.553,128.800 163.164 C 128.800 162.164,127.713 161.200,126.586 161.200 C 126.038 161.200,125.445 160.858,125.200 160.400 C 124.715 159.494,122.728 159.325,121.400 160.078 M211.105 331.475 C 210.722 331.575,210.002 331.579,209.505 331.483 C 209.007 331.387,209.320 331.305,210.200 331.301 C 211.080 331.296,211.487 331.375,211.105 331.475 " stroke="none" fill="#141c24" fill-rule="evenodd"></path><path id="path1" d="M209.505 331.483 C 210.002 331.579,210.722 331.575,211.105 331.475 C 211.487 331.375,211.080 331.296,210.200 331.301 C 209.320 331.305,209.007 331.387,209.505 331.483 " stroke="none" fill="#181c24" fill-rule="evenodd"></path><path id="path2" d="M209.505 331.483 C 210.002 331.579,210.722 331.575,211.105 331.475 C 211.487 331.375,211.080 331.296,210.200 331.301 C 209.320 331.305,209.007 331.387,209.505 331.483 " stroke="none" fill="#181c24" fill-rule="evenodd"></path><path id="path3" d="M209.505 331.483 C 210.002 331.579,210.722 331.575,211.105 331.475 C 211.487 331.375,211.080 331.296,210.200 331.301 C 209.320 331.305,209.007 331.387,209.505 331.483 " stroke="none" fill="#181c24" fill-rule="evenodd"></path><path id="path4" d="M209.505 331.483 C 210.002 331.579,210.722 331.575,211.105 331.475 C 211.487 331.375,211.080 331.296,210.200 331.301 C 209.320 331.305,209.007 331.387,209.505 331.483 " stroke="none" fill="#181c24" fill-rule="evenodd"></path></g></svg>